# This file uses centimeters as units for non-parametric coordinates.

mtllib closed cupboard.mtl
g default
v -0.500000 -0.500000 0.500000
v 0.500000 -0.500000 0.500000
v -0.500000 0.500000 0.500000
v 0.500000 0.500000 0.500000
v -0.500000 0.500000 -0.500000
v 0.500000 0.500000 -0.500000
v -0.500000 -0.500000 -0.500000
v 0.500000 -0.500000 -0.500000
v 0.500000 -0.400000 -0.400000
v 0.500000 -0.400000 0.400000
v 0.500000 0.400000 -0.400000
v 0.500000 0.400000 0.400000
v 0.500000 -0.400000 -0.400000
v 0.500000 -0.400000 0.400000
v 0.500000 0.400000 -0.400000
v 0.500000 0.400000 0.400000
vt 0.375000 0.000000
vt 0.625000 0.000000
vt 0.375000 0.250000
vt 0.625000 0.250000
vt 0.375000 0.500000
vt 0.625000 0.500000
vt 0.375000 0.750000
vt 0.625000 0.750000
vt 0.375000 1.000000
vt 0.625000 1.000000
vt 0.875000 0.000000
vt 0.875000 0.250000
vt 0.125000 0.000000
vt 0.125000 0.250000
vt 0.625000 0.000000
vt 0.875000 0.000000
vt 0.875000 0.250000
vt 0.625000 0.250000
vt 0.625000 0.000000
vt 0.875000 0.000000
vt 0.875000 0.250000
vt 0.625000 0.250000
vn 0.000000 0.000000 1.000000
vn 0.000000 0.000000 1.000000
vn 0.000000 0.000000 1.000000
vn 0.000000 0.000000 1.000000
vn 0.000000 1.000000 0.000000
vn 0.000000 1.000000 0.000000
vn 0.000000 1.000000 0.000000
vn 0.000000 1.000000 0.000000
vn 0.000000 0.000000 -1.000000
vn 0.000000 0.000000 -1.000000
vn 0.000000 0.000000 -1.000000
vn 0.000000 0.000000 -1.000000
vn 0.000000 -1.000000 0.000000
vn 0.000000 -1.000000 0.000000
vn 0.000000 -1.000000 0.000000
vn 0.000000 -1.000000 0.000000
vn 1.000000 0.000000 0.000000
vn 1.000000 0.000000 0.000000
vn 1.000000 0.000000 0.000000
vn 1.000000 0.000000 0.000000
vn -1.000000 0.000000 0.000000
vn -1.000000 0.000000 0.000000
vn -1.000000 0.000000 0.000000
vn -1.000000 0.000000 0.000000
vn 1.000000 -0.000000 0.000000
vn 1.000000 -0.000000 0.000000
vn 1.000000 -0.000000 0.000000
vn 1.000000 -0.000000 0.000000
vn 1.000000 0.000000 0.000000
vn 1.000000 0.000000 0.000000
vn 1.000000 0.000000 0.000000
vn 1.000000 0.000000 0.000000
vn 0.000000 0.000000 0.000000
vn 0.000000 0.000000 0.000000
vn 0.000000 0.000000 0.000000
vn 0.000000 0.000000 0.000000
vn 0.000000 0.000000 0.000000
vn 0.000000 0.000000 0.000000
vn 0.000000 0.000000 0.000000
vn 0.000000 0.000000 0.000000
vn 0.000000 0.000000 0.000000
vn 0.000000 0.000000 0.000000
vn 0.000000 0.000000 0.000000
vn 0.000000 0.000000 0.000000
vn 0.000000 0.000000 0.000000
vn 0.000000 0.000000 0.000000
vn 0.000000 0.000000 0.000000
vn 0.000000 0.000000 0.000000
s off
g pCube1
usemtl initialShadingGroup
f 1/1/1 2/2/2 4/4/3 3/3/4
f 3/3/5 4/4/6 6/6/7 5/5/8
f 5/5/9 6/6/10 8/8/11 7/7/12
f 7/7/13 8/8/14 2/10/15 1/9/16
f 14/19/17 13/20/18 15/21/19 16/22/20
f 7/13/21 1/1/22 3/3/23 5/14/24
s 1
f 2/2/25 8/11/26 9/16/27 10/15/28
f 8/11/26 6/12/29 11/17/30 9/16/27
f 6/12/29 4/4/31 12/18/32 11/17/30
f 4/4/31 2/2/25 10/15/28 12/18/32
s off
f 10/15/33 9/16/34 13/20/35 14/19/36
f 9/16/37 11/17/38 15/21/39 13/20/40
f 11/17/41 12/18/42 16/22/43 15/21/44
f 12/18/45 10/15/46 14/19/47 16/22/48
g default
v 0.452946 0.039923 0.253717
v 0.452946 0.056092 0.261955
v 0.452946 0.068923 0.274787
v 0.452946 0.077161 0.290955
v 0.452946 0.080000 0.308878
v 0.452946 0.077161 0.326801
v 0.452946 0.068923 0.342970
v 0.452946 0.056092 0.355801
v 0.452946 0.039923 0.364040
v 0.452946 0.022000 0.366878
v 0.452946 0.004077 0.364040
v 0.452946 -0.012092 0.355801
v 0.452946 -0.024923 0.342970
v 0.452946 -0.033161 0.326801
v 0.452946 -0.036000 0.308878
v 0.452946 -0.033161 0.290955
v 0.452946 -0.024923 0.274787
v 0.452946 -0.012092 0.261955
v 0.452946 0.004077 0.253717
v 0.452946 0.022000 0.250878
v 0.594946 0.039923 0.253717
v 0.594946 0.056092 0.261955
v 0.594946 0.068923 0.274787
v 0.594946 0.077161 0.290955
v 0.594946 0.080000 0.308878
v 0.594946 0.077161 0.326801
v 0.594946 0.068923 0.342970
v 0.594946 0.056092 0.355801
v 0.594946 0.039923 0.364040
v 0.594946 0.022000 0.366878
v 0.594946 0.004077 0.364040
v 0.594946 -0.012092 0.355801
v 0.594946 -0.024923 0.342970
v 0.594946 -0.033161 0.326801
v 0.594946 -0.036000 0.308878
v 0.594946 -0.033161 0.290955
v 0.594946 -0.024923 0.274787
v 0.594946 -0.012092 0.261955
v 0.594946 0.004077 0.253717
v 0.594946 0.022000 0.250878
v 0.452946 0.022000 0.308878
v 0.594946 0.022000 0.308878
vt 0.648603 0.107966
vt 0.626409 0.064408
vt 0.591842 0.029841
vt 0.548284 0.007647
vt 0.500000 -0.000000
vt 0.451716 0.007647
vt 0.408159 0.029841
vt 0.373591 0.064409
vt 0.351397 0.107966
vt 0.343750 0.156250
vt 0.351397 0.204534
vt 0.373591 0.248091
vt 0.408159 0.282659
vt 0.451716 0.304853
vt 0.500000 0.312500
vt 0.548284 0.304853
vt 0.591841 0.282659
vt 0.626409 0.248091
vt 0.648603 0.204534
vt 0.656250 0.156250
vt 0.375000 0.312500
vt 0.387500 0.312500
vt 0.400000 0.312500
vt 0.412500 0.312500
vt 0.425000 0.312500
vt 0.437500 0.312500
vt 0.450000 0.312500
vt 0.462500 0.312500
vt 0.475000 0.312500
vt 0.487500 0.312500
vt 0.500000 0.312500
vt 0.512500 0.312500
vt 0.525000 0.312500
vt 0.537500 0.312500
vt 0.550000 0.312500
vt 0.562500 0.312500
vt 0.575000 0.312500
vt 0.587500 0.312500
vt 0.600000 0.312500
vt 0.612500 0.312500
vt 0.625000 0.312500
vt 0.375000 0.687500
vt 0.387500 0.687500
vt 0.400000 0.687500
vt 0.412500 0.687500
vt 0.425000 0.687500
vt 0.437500 0.687500
vt 0.450000 0.687500
vt 0.462500 0.687500
vt 0.475000 0.687500
vt 0.487500 0.687500
vt 0.500000 0.687500
vt 0.512500 0.687500
vt 0.525000 0.687500
vt 0.537500 0.687500
vt 0.550000 0.687500
vt 0.562500 0.687500
vt 0.575000 0.687500
vt 0.587500 0.687500
vt 0.600000 0.687500
vt 0.612500 0.687500
vt 0.625000 0.687500
vt 0.648603 0.795466
vt 0.626409 0.751908
vt 0.591842 0.717341
vt 0.548284 0.695147
vt 0.500000 0.687500
vt 0.451716 0.695147
vt 0.408159 0.717341
vt 0.373591 0.751909
vt 0.351397 0.795466
vt 0.343750 0.843750
vt 0.351397 0.892034
vt 0.373591 0.935591
vt 0.408159 0.970159
vt 0.451716 0.992353
vt 0.500000 1.000000
vt 0.548284 0.992353
vt 0.591841 0.970159
vt 0.626409 0.935591
vt 0.648603 0.892034
vt 0.656250 0.843750
vt 0.500000 0.156250
vt 0.500000 0.843750
vn 0.000000 0.309016 -0.951057
vn 0.000000 0.587785 -0.809017
vn 0.000000 0.587785 -0.809017
vn 0.000000 0.309016 -0.951057
vn 0.000000 0.809017 -0.587785
vn 0.000000 0.809017 -0.587785
vn 0.000000 0.951057 -0.309017
vn 0.000000 0.951057 -0.309017
vn 0.000000 1.000000 0.000000
vn 0.000000 1.000000 0.000000
vn 0.000000 0.951057 0.309017
vn 0.000000 0.951057 0.309017
vn 0.000000 0.809017 0.587785
vn 0.000000 0.809017 0.587785
vn 0.000000 0.587785 0.809017
vn 0.000000 0.587785 0.809017
vn 0.000000 0.309017 0.951057
vn 0.000000 0.309017 0.951057
vn 0.000000 0.000000 1.000000
vn 0.000000 0.000000 1.000000
vn 0.000000 -0.309017 0.951057
vn 0.000000 -0.309017 0.951057
vn 0.000000 -0.587785 0.809017
vn 0.000000 -0.587785 0.809017
vn 0.000000 -0.809017 0.587785
vn 0.000000 -0.809017 0.587785
vn 0.000000 -0.951057 0.309017
vn 0.000000 -0.951057 0.309017
vn 0.000000 -1.000000 -0.000000
vn 0.000000 -1.000000 -0.000000
vn 0.000000 -0.951057 -0.309017
vn 0.000000 -0.951057 -0.309017
vn 0.000000 -0.809017 -0.587785
vn 0.000000 -0.809017 -0.587785
vn 0.000000 -0.587785 -0.809017
vn 0.000000 -0.587785 -0.809017
vn 0.000000 -0.309017 -0.951057
vn 0.000000 -0.309017 -0.951057
vn 0.000000 -0.000001 -1.000000
vn 0.000000 -0.000001 -1.000000
vn -1.000000 -0.000000 0.000000
vn -1.000000 -0.000000 0.000000
vn -1.000000 -0.000000 0.000000
vn -1.000000 -0.000000 0.000000
vn -1.000000 -0.000000 0.000000
vn -1.000000 -0.000000 0.000000
vn -1.000000 -0.000000 0.000000
vn -1.000000 -0.000000 0.000000
vn -1.000000 -0.000000 0.000000
vn -1.000000 -0.000000 0.000000
vn -1.000000 -0.000000 0.000000
vn -1.000000 -0.000000 0.000000
vn -1.000000 -0.000000 0.000000
vn -1.000000 -0.000000 0.000000
vn -1.000000 -0.000000 0.000000
vn -1.000000 -0.000000 0.000000
vn -1.000000 -0.000000 0.000000
vn -1.000000 -0.000000 0.000000
vn -1.000000 -0.000000 0.000000
vn -1.000000 -0.000000 0.000000
vn -1.000000 -0.000000 0.000000
vn 1.000000 0.000000 0.000000
vn 1.000000 0.000000 0.000000
vn 1.000000 0.000000 0.000000
vn 1.000000 0.000000 0.000000
vn 1.000000 0.000000 0.000000
vn 1.000000 0.000000 0.000000
vn 1.000000 0.000000 0.000000
vn 1.000000 0.000000 0.000000
vn 1.000000 0.000000 0.000000
vn 1.000000 0.000000 0.000000
vn 1.000000 0.000000 0.000000
vn 1.000000 0.000000 0.000000
vn 1.000000 0.000000 0.000000
vn 1.000000 0.000000 0.000000
vn 1.000000 0.000000 0.000000
vn 1.000000 0.000000 0.000000
vn 1.000000 0.000000 0.000000
vn 1.000000 0.000000 0.000000
vn 1.000000 0.000000 0.000000
vn 1.000000 0.000000 0.000000
vn 1.000000 0.000000 0.000000
s 1
g pCylinder1
usemtl initialShadingGroup
f 17/43/49 18/44/50 38/65/51 37/64/52
f 18/44/50 19/45/53 39/66/54 38/65/51
f 19/45/53 20/46/55 40/67/56 39/66/54
f 20/46/55 21/47/57 41/68/58 40/67/56
f 21/47/57 22/48/59 42/69/60 41/68/58
f 22/48/59 23/49/61 43/70/62 42/69/60
f 23/49/61 24/50/63 44/71/64 43/70/62
f 24/50/63 25/51/65 45/72/66 44/71/64
f 25/51/65 26/52/67 46/73/68 45/72/66
f 26/52/67 27/53/69 47/74/70 46/73/68
f 27/53/69 28/54/71 48/75/72 47/74/70
f 28/54/71 29/55/73 49/76/74 48/75/72
f 29/55/73 30/56/75 50/77/76 49/76/74
f 30/56/75 31/57/77 51/78/78 50/77/76
f 31/57/77 32/58/79 52/79/80 51/78/78
f 32/58/79 33/59/81 53/80/82 52/79/80
f 33/59/81 34/60/83 54/81/84 53/80/82
f 34/60/83 35/61/85 55/82/86 54/81/84
f 35/61/85 36/62/87 56/83/88 55/82/86
f 36/62/87 17/63/49 37/84/52 56/83/88
s 2
f 18/24/89 17/23/90 57/105/91
f 19/25/92 18/24/89 57/105/91
f 20/26/93 19/25/92 57/105/91
f 21/27/94 20/26/93 57/105/91
f 22/28/95 21/27/94 57/105/91
f 23/29/96 22/28/95 57/105/91
f 24/30/97 23/29/96 57/105/91
f 25/31/98 24/30/97 57/105/91
f 26/32/99 25/31/98 57/105/91
f 27/33/100 26/32/99 57/105/91
f 28/34/101 27/33/100 57/105/91
f 29/35/102 28/34/101 57/105/91
f 30/36/103 29/35/102 57/105/91
f 31/37/104 30/36/103 57/105/91
f 32/38/105 31/37/104 57/105/91
f 33/39/106 32/38/105 57/105/91
f 34/40/107 33/39/106 57/105/91
f 35/41/108 34/40/107 57/105/91
f 36/42/109 35/41/108 57/105/91
f 17/23/90 36/42/109 57/105/91
s 3
f 37/103/110 38/102/111 58/106/112
f 38/102/111 39/101/113 58/106/112
f 39/101/113 40/100/114 58/106/112
f 40/100/114 41/99/115 58/106/112
f 41/99/115 42/98/116 58/106/112
f 42/98/116 43/97/117 58/106/112
f 43/97/117 44/96/118 58/106/112
f 44/96/118 45/95/119 58/106/112
f 45/95/119 46/94/120 58/106/112
f 46/94/120 47/93/121 58/106/112
f 47/93/121 48/92/122 58/106/112
f 48/92/122 49/91/123 58/106/112
f 49/91/123 50/90/124 58/106/112
f 50/90/124 51/89/125 58/106/112
f 51/89/125 52/88/126 58/106/112
f 52/88/126 53/87/127 58/106/112
f 53/87/127 54/86/128 58/106/112
f 54/86/128 55/85/129 58/106/112
f 55/85/129 56/104/130 58/106/112
f 56/104/130 37/103/110 58/106/112
