# This file uses centimeters as units for non-parametric coordinates.

mtllib fridge freezer.mtl
g default
v -0.500000 -1.000000 0.500000
v 0.500000 -1.000000 0.500000
v -0.500000 1.000000 0.500000
v 0.500000 1.000000 0.500000
v -0.500000 1.000000 -0.500000
v 0.500000 1.000000 -0.500000
v -0.500000 -1.000000 -0.500000
v 0.500000 -1.000000 -0.500000
v -0.500000 0.000000 0.500000
v -0.500000 0.000000 -0.500000
v 0.500000 0.000000 -0.500000
v 0.500000 0.000000 0.500000
v -0.528000 0.020000 0.480000
v -0.528000 0.020000 -0.480000
v -0.528000 0.980000 0.480000
v -0.528000 0.980000 -0.480000
v -0.528000 -0.980000 -0.480000
v -0.528000 -0.980000 0.480000
v -0.528000 -0.020000 0.480000
v -0.528000 -0.020000 -0.480000
vt 0.375000 0.000000
vt 0.625000 0.000000
vt 0.375000 0.250000
vt 0.625000 0.250000
vt 0.375000 0.500000
vt 0.625000 0.500000
vt 0.375000 0.750000
vt 0.625000 0.750000
vt 0.375000 1.000000
vt 0.625000 1.000000
vt 0.875000 0.000000
vt 0.875000 0.250000
vt 0.125000 0.000000
vt 0.125000 0.250000
vt 0.375000 0.125000
vt 0.125000 0.125000
vt 0.375000 0.625000
vt 0.625000 0.625000
vt 0.875000 0.125000
vt 0.625000 0.125000
vt 0.125000 0.125000
vt 0.375000 0.125000
vt 0.375000 0.250000
vt 0.125000 0.250000
vt 0.125000 0.000000
vt 0.375000 0.000000
vt 0.375000 0.125000
vt 0.125000 0.125000
vn 0.000000 0.000000 1.000000
vn 0.000000 0.000000 1.000000
vn 0.000000 0.000000 1.000000
vn 0.000000 0.000000 1.000000
vn 0.000000 1.000000 0.000000
vn 0.000000 1.000000 0.000000
vn 0.000000 1.000000 0.000000
vn 0.000000 1.000000 0.000000
vn 0.000000 0.000000 -1.000000
vn 0.000000 0.000000 -1.000000
vn 0.000000 0.000000 -1.000000
vn 0.000000 0.000000 -1.000000
vn 0.000000 -1.000000 0.000000
vn 0.000000 -1.000000 0.000000
vn 0.000000 -1.000000 0.000000
vn 0.000000 -1.000000 0.000000
vn 1.000000 0.000000 0.000000
vn 1.000000 0.000000 0.000000
vn 1.000000 0.000000 0.000000
vn 1.000000 0.000000 0.000000
vn -1.000000 0.000000 0.000000
vn -1.000000 0.000000 0.000000
vn -1.000000 0.000000 0.000000
vn -1.000000 0.000000 0.000000
vn -1.000000 0.000000 0.000000
vn -1.000000 0.000000 0.000000
vn -1.000000 0.000000 0.000000
vn -1.000000 0.000000 0.000000
vn 0.000000 0.000000 -1.000000
vn 0.000000 0.000000 -1.000000
vn 1.000000 0.000000 0.000000
vn 1.000000 0.000000 0.000000
vn 0.000000 0.000000 1.000000
vn 0.000000 0.000000 1.000000
vn -0.581238 -0.813734 0.000000
vn -0.581238 -0.813734 0.000000
vn -0.581238 -0.813734 0.000000
vn -0.581238 -0.813734 0.000000
vn -0.581238 0.000000 0.813734
vn -0.581238 0.000000 0.813734
vn -0.581238 0.000000 0.813734
vn -0.581238 0.000000 0.813734
vn -0.581238 0.813734 0.000000
vn -0.581238 0.813734 0.000000
vn -0.581238 0.813734 0.000000
vn -0.581238 0.813734 0.000000
vn -0.581238 0.000000 -0.813733
vn -0.581238 0.000000 -0.813734
vn -0.581238 0.000000 -0.813733
vn -0.581238 0.000000 -0.813733
vn -0.581238 -0.813734 0.000000
vn -0.581238 -0.813734 0.000000
vn -0.581238 -0.813734 0.000000
vn -0.581238 -0.813734 0.000000
vn -0.581238 0.000000 0.813733
vn -0.581238 0.000000 0.813734
vn -0.581238 0.000000 0.813733
vn -0.581238 0.000000 0.813733
vn -0.581238 0.813734 0.000000
vn -0.581238 0.813734 0.000000
vn -0.581238 0.813734 0.000000
vn -0.581238 0.813734 0.000000
vn -0.581238 0.000000 -0.813734
vn -0.581238 0.000000 -0.813734
vn -0.581238 0.000000 -0.813734
vn -0.581238 0.000000 -0.813734
s 1
g pCube1
usemtl initialShadingGroup
f 1/1/1 2/2/2 12/20/3 9/15/4
s off
f 3/3/5 4/4/6 6/6/7 5/5/8
s 2
f 10/17/9 11/18/10 8/8/11 7/7/12
s off
f 7/7/13 8/8/14 2/10/15 1/9/16
s 3
f 2/2/17 8/11/18 11/19/19 12/20/20
s off
f 17/25/21 18/26/22 19/27/23 20/28/24
f 14/21/25 13/22/26 15/23/27 16/24/28
s 2
f 5/5/29 6/6/30 11/18/10 10/17/9
s 3
f 12/20/20 11/19/19 6/12/31 4/4/32
s 1
f 9/15/4 12/20/3 4/4/33 3/3/34
s off
f 10/16/35 9/15/36 13/22/37 14/21/38
f 9/15/39 3/3/40 15/23/41 13/22/42
f 3/3/43 5/14/44 16/24/45 15/23/46
f 5/14/47 10/16/48 14/21/49 16/24/50
f 7/13/51 1/1/52 18/26/53 17/25/54
f 1/1/55 9/15/56 19/27/57 18/26/58
f 9/15/59 10/16/60 20/28/61 19/27/62
f 10/16/63 7/13/64 17/25/65 20/28/66
g default
v -0.475276 0.522708 -0.342856
v -0.475276 0.533446 -0.337385
v -0.475276 0.541968 -0.328864
v -0.475276 0.547439 -0.318126
v -0.475276 0.549324 -0.306223
v -0.475276 0.547439 -0.294320
v -0.475276 0.541968 -0.283582
v -0.475276 0.533446 -0.275061
v -0.475276 0.522708 -0.269590
v -0.475276 0.510806 -0.267704
v -0.475276 0.498903 -0.269590
v -0.475276 0.488165 -0.275061
v -0.475276 0.479643 -0.283582
v -0.475276 0.474172 -0.294320
v -0.475276 0.472287 -0.306223
v -0.475276 0.474172 -0.318126
v -0.475276 0.479643 -0.328864
v -0.475276 0.488165 -0.337385
v -0.475276 0.498903 -0.342856
v -0.475276 0.510806 -0.344741
v -0.398239 0.522708 -0.342856
v -0.398239 0.533446 -0.337385
v -0.398239 0.541968 -0.328864
v -0.398239 0.547439 -0.318126
v -0.398239 0.549324 -0.306223
v -0.398239 0.547439 -0.294320
v -0.398239 0.541968 -0.283582
v -0.398239 0.533446 -0.275061
v -0.398239 0.522708 -0.269590
v -0.398239 0.510806 -0.267704
v -0.398239 0.498903 -0.269590
v -0.398239 0.488165 -0.275061
v -0.398239 0.479643 -0.283582
v -0.398239 0.474172 -0.294320
v -0.398239 0.472287 -0.306223
v -0.398239 0.474172 -0.318126
v -0.398239 0.479643 -0.328864
v -0.398239 0.488165 -0.337385
v -0.398239 0.498903 -0.342856
v -0.398239 0.510806 -0.344741
v -0.475276 0.510806 -0.306223
v -0.398239 0.510806 -0.306223
vt 0.648603 0.107966
vt 0.626409 0.064408
vt 0.591842 0.029841
vt 0.548284 0.007647
vt 0.500000 -0.000000
vt 0.451716 0.007647
vt 0.408159 0.029841
vt 0.373591 0.064409
vt 0.351397 0.107966
vt 0.343750 0.156250
vt 0.351397 0.204534
vt 0.373591 0.248091
vt 0.408159 0.282659
vt 0.451716 0.304853
vt 0.500000 0.312500
vt 0.548284 0.304853
vt 0.591841 0.282659
vt 0.626409 0.248091
vt 0.648603 0.204534
vt 0.656250 0.156250
vt 0.375000 0.312500
vt 0.387500 0.312500
vt 0.400000 0.312500
vt 0.412500 0.312500
vt 0.425000 0.312500
vt 0.437500 0.312500
vt 0.450000 0.312500
vt 0.462500 0.312500
vt 0.475000 0.312500
vt 0.487500 0.312500
vt 0.500000 0.312500
vt 0.512500 0.312500
vt 0.525000 0.312500
vt 0.537500 0.312500
vt 0.550000 0.312500
vt 0.562500 0.312500
vt 0.575000 0.312500
vt 0.587500 0.312500
vt 0.600000 0.312500
vt 0.612500 0.312500
vt 0.625000 0.312500
vt 0.375000 0.687500
vt 0.387500 0.687500
vt 0.400000 0.687500
vt 0.412500 0.687500
vt 0.425000 0.687500
vt 0.437500 0.687500
vt 0.450000 0.687500
vt 0.462500 0.687500
vt 0.475000 0.687500
vt 0.487500 0.687500
vt 0.500000 0.687500
vt 0.512500 0.687500
vt 0.525000 0.687500
vt 0.537500 0.687500
vt 0.550000 0.687500
vt 0.562500 0.687500
vt 0.575000 0.687500
vt 0.587500 0.687500
vt 0.600000 0.687500
vt 0.612500 0.687500
vt 0.625000 0.687500
vt 0.648603 0.795466
vt 0.626409 0.751908
vt 0.591842 0.717341
vt 0.548284 0.695147
vt 0.500000 0.687500
vt 0.451716 0.695147
vt 0.408159 0.717341
vt 0.373591 0.751909
vt 0.351397 0.795466
vt 0.343750 0.843750
vt 0.351397 0.892034
vt 0.373591 0.935591
vt 0.408159 0.970159
vt 0.451716 0.992353
vt 0.500000 1.000000
vt 0.548284 0.992353
vt 0.591841 0.970159
vt 0.626409 0.935591
vt 0.648603 0.892034
vt 0.656250 0.843750
vt 0.500000 0.156250
vt 0.500000 0.843750
vn 0.000000 0.309016 -0.951057
vn 0.000000 0.587785 -0.809017
vn 0.000000 0.587785 -0.809017
vn 0.000000 0.309016 -0.951057
vn 0.000000 0.809017 -0.587785
vn 0.000000 0.809017 -0.587785
vn 0.000000 0.951057 -0.309017
vn 0.000000 0.951057 -0.309017
vn 0.000000 1.000000 0.000000
vn 0.000000 1.000000 0.000000
vn 0.000000 0.951056 0.309017
vn 0.000000 0.951056 0.309017
vn 0.000000 0.809017 0.587785
vn 0.000000 0.809017 0.587785
vn 0.000000 0.587785 0.809017
vn 0.000000 0.587785 0.809017
vn 0.000000 0.309017 0.951057
vn 0.000000 0.309017 0.951057
vn 0.000000 0.000000 1.000000
vn 0.000000 0.000000 1.000000
vn 0.000000 -0.309017 0.951056
vn 0.000000 -0.309017 0.951056
vn 0.000000 -0.587785 0.809017
vn 0.000000 -0.587785 0.809017
vn 0.000000 -0.809017 0.587785
vn 0.000000 -0.809017 0.587785
vn 0.000000 -0.951057 0.309017
vn 0.000000 -0.951057 0.309017
vn 0.000000 -1.000000 -0.000000
vn 0.000000 -1.000000 -0.000000
vn 0.000000 -0.951056 -0.309017
vn 0.000000 -0.951056 -0.309017
vn 0.000000 -0.809017 -0.587785
vn 0.000000 -0.809017 -0.587785
vn 0.000000 -0.587785 -0.809017
vn 0.000000 -0.587785 -0.809017
vn 0.000000 -0.309017 -0.951056
vn 0.000000 -0.309017 -0.951056
vn 0.000000 -0.000001 -1.000000
vn 0.000000 -0.000001 -1.000000
vn -1.000000 -0.000000 0.000000
vn -1.000000 -0.000000 0.000000
vn -1.000000 -0.000000 0.000000
vn -1.000000 -0.000000 0.000000
vn -1.000000 -0.000000 0.000000
vn -1.000000 -0.000000 0.000000
vn -1.000000 -0.000000 0.000000
vn -1.000000 -0.000000 0.000000
vn -1.000000 -0.000000 0.000000
vn -1.000000 -0.000000 0.000000
vn -1.000000 -0.000000 0.000000
vn -1.000000 -0.000000 0.000000
vn -1.000000 -0.000000 0.000000
vn -1.000000 -0.000000 0.000000
vn -1.000000 -0.000000 0.000000
vn -1.000000 -0.000000 0.000000
vn -1.000000 -0.000000 0.000000
vn -1.000000 -0.000000 0.000000
vn -1.000000 -0.000000 0.000000
vn -1.000000 -0.000000 0.000000
vn -1.000000 -0.000000 0.000000
vn 1.000000 0.000000 0.000000
vn 1.000000 0.000000 0.000000
vn 1.000000 0.000000 0.000000
vn 1.000000 0.000000 0.000000
vn 1.000000 0.000000 0.000000
vn 1.000000 0.000000 0.000000
vn 1.000000 0.000000 0.000000
vn 1.000000 0.000000 0.000000
vn 1.000000 0.000000 0.000000
vn 1.000000 0.000000 0.000000
vn 1.000000 0.000000 0.000000
vn 1.000000 0.000000 0.000000
vn 1.000000 0.000000 0.000000
vn 1.000000 0.000000 0.000000
vn 1.000000 0.000000 0.000000
vn 1.000000 0.000000 0.000000
vn 1.000000 0.000000 0.000000
vn 1.000000 0.000000 0.000000
vn 1.000000 0.000000 0.000000
vn 1.000000 0.000000 0.000000
vn 1.000000 0.000000 0.000000
s 1
g pCylinder1
usemtl initialShadingGroup
f 21/49/67 22/50/68 42/71/69 41/70/70
f 22/50/68 23/51/71 43/72/72 42/71/69
f 23/51/71 24/52/73 44/73/74 43/72/72
f 24/52/73 25/53/75 45/74/76 44/73/74
f 25/53/75 26/54/77 46/75/78 45/74/76
f 26/54/77 27/55/79 47/76/80 46/75/78
f 27/55/79 28/56/81 48/77/82 47/76/80
f 28/56/81 29/57/83 49/78/84 48/77/82
f 29/57/83 30/58/85 50/79/86 49/78/84
f 30/58/85 31/59/87 51/80/88 50/79/86
f 31/59/87 32/60/89 52/81/90 51/80/88
f 32/60/89 33/61/91 53/82/92 52/81/90
f 33/61/91 34/62/93 54/83/94 53/82/92
f 34/62/93 35/63/95 55/84/96 54/83/94
f 35/63/95 36/64/97 56/85/98 55/84/96
f 36/64/97 37/65/99 57/86/100 56/85/98
f 37/65/99 38/66/101 58/87/102 57/86/100
f 38/66/101 39/67/103 59/88/104 58/87/102
f 39/67/103 40/68/105 60/89/106 59/88/104
f 40/68/105 21/69/67 41/90/70 60/89/106
s 2
f 22/30/107 21/29/108 61/111/109
f 23/31/110 22/30/107 61/111/109
f 24/32/111 23/31/110 61/111/109
f 25/33/112 24/32/111 61/111/109
f 26/34/113 25/33/112 61/111/109
f 27/35/114 26/34/113 61/111/109
f 28/36/115 27/35/114 61/111/109
f 29/37/116 28/36/115 61/111/109
f 30/38/117 29/37/116 61/111/109
f 31/39/118 30/38/117 61/111/109
f 32/40/119 31/39/118 61/111/109
f 33/41/120 32/40/119 61/111/109
f 34/42/121 33/41/120 61/111/109
f 35/43/122 34/42/121 61/111/109
f 36/44/123 35/43/122 61/111/109
f 37/45/124 36/44/123 61/111/109
f 38/46/125 37/45/124 61/111/109
f 39/47/126 38/46/125 61/111/109
f 40/48/127 39/47/126 61/111/109
f 21/29/108 40/48/127 61/111/109
s 3
f 41/109/128 42/108/129 62/112/130
f 42/108/129 43/107/131 62/112/130
f 43/107/131 44/106/132 62/112/130
f 44/106/132 45/105/133 62/112/130
f 45/105/133 46/104/134 62/112/130
f 46/104/134 47/103/135 62/112/130
f 47/103/135 48/102/136 62/112/130
f 48/102/136 49/101/137 62/112/130
f 49/101/137 50/100/138 62/112/130
f 50/100/138 51/99/139 62/112/130
f 51/99/139 52/98/140 62/112/130
f 52/98/140 53/97/141 62/112/130
f 53/97/141 54/96/142 62/112/130
f 54/96/142 55/95/143 62/112/130
f 55/95/143 56/94/144 62/112/130
f 56/94/144 57/93/145 62/112/130
f 57/93/145 58/92/146 62/112/130
f 58/92/146 59/91/147 62/112/130
f 59/91/147 60/110/148 62/112/130
f 60/110/148 41/109/128 62/112/130
g default
v -0.557949 0.599492 -0.385819
v -0.512605 0.599492 -0.385819
v -0.557949 0.644835 -0.385819
v -0.512605 0.644835 -0.385819
v -0.557949 0.644835 -0.431162
v -0.512605 0.644835 -0.431162
v -0.557949 0.599492 -0.431162
v -0.512605 0.599492 -0.431162
v -0.595018 0.599492 -0.431162
v -0.595018 0.599492 -0.385819
v -0.595018 0.644835 -0.385819
v -0.595018 0.644835 -0.431162
v -0.557949 0.307054 -0.431162
v -0.557949 0.307054 -0.385819
v -0.595018 0.307054 -0.385819
v -0.595018 0.307054 -0.431162
v -0.557949 0.365542 -0.431162
v -0.595018 0.365542 -0.431162
v -0.595018 0.365542 -0.385819
v -0.557949 0.365542 -0.385819
v -0.514845 0.365542 -0.385819
v -0.514845 0.365542 -0.431162
v -0.514845 0.307054 -0.385819
v -0.514845 0.307054 -0.431162
vt 0.375000 0.000000
vt 0.625000 0.000000
vt 0.375000 0.250000
vt 0.625000 0.250000
vt 0.375000 0.500000
vt 0.625000 0.500000
vt 0.375000 0.750000
vt 0.625000 0.750000
vt 0.375000 1.000000
vt 0.625000 1.000000
vt 0.875000 0.000000
vt 0.875000 0.250000
vt 0.125000 0.000000
vt 0.125000 0.250000
vt 0.125000 0.000000
vt 0.375000 0.000000
vt 0.375000 0.250000
vt 0.125000 0.250000
vt 0.125000 0.000000
vt 0.375000 0.000000
vt 0.375000 0.000000
vt 0.125000 0.000000
vt 0.125000 0.000000
vt 0.125000 0.000000
vt 0.375000 0.000000
vt 0.375000 0.000000
vt 0.125000 0.000000
vt 0.375000 0.000000
vt 0.375000 0.000000
vt 0.125000 0.000000
vn 0.000000 0.000000 1.000000
vn 0.000000 0.000000 1.000000
vn 0.000000 0.000000 1.000000
vn 0.000000 0.000000 1.000000
vn 0.000000 1.000000 0.000000
vn 0.000000 1.000000 0.000000
vn 0.000000 1.000000 0.000000
vn 0.000000 1.000000 0.000000
vn 0.000000 0.000000 -1.000000
vn 0.000000 0.000000 -1.000000
vn 0.000000 0.000000 -1.000000
vn 0.000000 0.000000 -1.000000
vn 0.000000 -1.000000 0.000000
vn 0.000000 -1.000000 0.000000
vn 0.000000 -1.000000 0.000000
vn 0.000000 -1.000000 0.000000
vn 1.000000 0.000000 0.000000
vn 1.000000 0.000000 0.000000
vn 1.000000 0.000000 0.000000
vn 1.000000 0.000000 0.000000
vn -1.000000 0.000000 0.000000
vn -1.000000 0.000000 0.000000
vn -1.000000 0.000000 0.000000
vn -1.000000 0.000000 0.000000
vn 0.000000 -1.000000 0.000000
vn 0.000000 -1.000000 0.000000
vn 0.000000 -1.000000 0.000000
vn 0.000000 -1.000000 0.000000
vn 0.000000 0.000000 1.000000
vn 0.000000 0.000000 1.000000
vn 0.000000 1.000000 0.000000
vn 0.000000 1.000000 0.000000
vn 0.000000 0.000000 -1.000000
vn 0.000000 0.000000 -1.000000
vn 1.000000 0.000000 0.000000
vn 1.000000 0.000000 0.000000
vn 1.000000 0.000000 0.000000
vn 1.000000 0.000000 0.000000
vn 0.000000 0.000000 1.000000
vn 0.000000 0.000000 1.000000
vn -1.000000 0.000000 0.000000
vn -1.000000 0.000000 0.000000
vn 0.000000 0.000000 -1.000000
vn 0.000000 0.000000 -1.000000
vn 0.000000 0.000000 -1.000000
vn 0.000000 0.000000 -1.000000
vn -1.000000 0.000000 0.000000
vn -1.000000 0.000000 0.000000
vn 0.000000 0.000000 1.000000
vn 0.000000 0.000000 1.000000
vn 1.000000 0.000000 0.000000
vn 1.000000 0.000000 0.000000
vn 1.000000 0.000000 0.000000
vn 1.000000 0.000000 0.000000
vn 0.000000 1.000000 0.000000
vn 0.000000 1.000000 0.000000
vn 0.000000 1.000000 0.000000
vn 0.000000 1.000000 0.000000
vn 0.000000 0.000000 1.000000
vn 0.000000 0.000000 1.000000
vn 0.000000 -1.000000 0.000000
vn 0.000000 -1.000000 0.000000
vn 0.000000 0.000000 -1.000000
vn 0.000000 0.000000 -1.000000
s 1
g pCube2
usemtl initialShadingGroup
f 63/113/149 64/114/150 66/116/151 65/115/152
s 2
f 65/115/153 66/116/154 68/118/155 67/117/156
s 3
f 67/117/157 68/118/158 70/120/159 69/119/160
s off
f 69/119/161 70/120/162 64/122/163 63/121/164
f 64/114/165 70/123/166 68/124/167 66/116/168
s 4
f 71/127/169 72/128/170 73/129/171 74/130/172
s 5
f 75/131/173 76/132/174 77/133/175 78/134/176
s 1
f 63/113/149 65/115/152 73/129/177 72/128/178
s 2
f 65/115/153 67/126/156 74/130/179 73/129/180
s 3
f 67/126/157 69/125/160 71/127/181 74/130/182
s off
f 69/125/183 63/113/184 82/138/185 79/135/186
s 1
f 63/113/149 72/128/178 81/137/187 82/138/188
s 4
f 72/128/170 71/127/169 80/136/189 81/137/190
s 3
f 71/127/181 69/125/160 79/135/191 80/136/192
f 80/136/192 79/135/191 75/131/193 78/134/194
s 4
f 81/137/190 80/136/189 78/134/195 77/133/196
s 1
f 82/138/188 81/137/187 77/133/197 76/132/198
s off
f 84/139/199 83/140/200 85/141/201 86/142/202
f 79/135/203 82/138/204 83/140/205 84/139/206
s 1
f 82/138/188 76/132/198 85/141/207 83/140/208
s 5
f 76/132/174 75/131/173 86/142/209 85/141/210
s 3
f 75/131/193 79/135/191 84/139/211 86/142/212
g default
v -0.557949 -0.296957 -0.385819
v -0.512605 -0.296957 -0.385819
v -0.557949 -0.251614 -0.385819
v -0.512605 -0.251614 -0.385819
v -0.557949 -0.251614 -0.431162
v -0.512605 -0.251614 -0.431162
v -0.557949 -0.296957 -0.431162
v -0.512605 -0.296957 -0.431162
v -0.595018 -0.296957 -0.431162
v -0.595018 -0.296957 -0.385819
v -0.595018 -0.251614 -0.385819
v -0.595018 -0.251614 -0.431162
v -0.557949 -0.589395 -0.431162
v -0.557949 -0.589395 -0.385819
v -0.595018 -0.589395 -0.385819
v -0.595018 -0.589395 -0.431162
v -0.557949 -0.530907 -0.431162
v -0.595018 -0.530907 -0.431162
v -0.595018 -0.530907 -0.385819
v -0.557949 -0.530907 -0.385819
v -0.514845 -0.530907 -0.385819
v -0.514845 -0.530907 -0.431162
v -0.514845 -0.589395 -0.385819
v -0.514845 -0.589395 -0.431162
vt 0.375000 0.000000
vt 0.625000 0.000000
vt 0.375000 0.250000
vt 0.625000 0.250000
vt 0.375000 0.500000
vt 0.625000 0.500000
vt 0.375000 0.750000
vt 0.625000 0.750000
vt 0.375000 1.000000
vt 0.625000 1.000000
vt 0.875000 0.000000
vt 0.875000 0.250000
vt 0.125000 0.000000
vt 0.125000 0.250000
vt 0.125000 0.000000
vt 0.375000 0.000000
vt 0.375000 0.250000
vt 0.125000 0.250000
vt 0.125000 0.000000
vt 0.375000 0.000000
vt 0.375000 0.000000
vt 0.125000 0.000000
vt 0.125000 0.000000
vt 0.125000 0.000000
vt 0.375000 0.000000
vt 0.375000 0.000000
vt 0.125000 0.000000
vt 0.375000 0.000000
vt 0.375000 0.000000
vt 0.125000 0.000000
vn 0.000000 0.000000 1.000000
vn 0.000000 0.000000 1.000000
vn 0.000000 0.000000 1.000000
vn 0.000000 0.000000 1.000000
vn 0.000000 1.000000 0.000000
vn 0.000000 1.000000 0.000000
vn 0.000000 1.000000 0.000000
vn 0.000000 1.000000 0.000000
vn 0.000000 0.000000 -1.000000
vn 0.000000 0.000000 -1.000000
vn 0.000000 0.000000 -1.000000
vn 0.000000 0.000000 -1.000000
vn 0.000000 -1.000000 0.000000
vn 0.000000 -1.000000 0.000000
vn 0.000000 -1.000000 0.000000
vn 0.000000 -1.000000 0.000000
vn 1.000000 0.000000 0.000000
vn 1.000000 0.000000 0.000000
vn 1.000000 0.000000 0.000000
vn 1.000000 0.000000 0.000000
vn -1.000000 0.000000 0.000000
vn -1.000000 0.000000 0.000000
vn -1.000000 0.000000 0.000000
vn -1.000000 0.000000 0.000000
vn 0.000000 -1.000000 0.000000
vn 0.000000 -1.000000 0.000000
vn 0.000000 -1.000000 0.000000
vn 0.000000 -1.000000 0.000000
vn 0.000000 0.000000 1.000000
vn 0.000000 0.000000 1.000000
vn 0.000000 1.000000 0.000000
vn 0.000000 1.000000 0.000000
vn 0.000000 0.000000 -1.000000
vn 0.000000 0.000000 -1.000000
vn 1.000000 0.000000 0.000000
vn 1.000000 0.000000 0.000000
vn 1.000000 0.000000 0.000000
vn 1.000000 0.000000 0.000000
vn 0.000000 0.000000 1.000000
vn 0.000000 0.000000 1.000000
vn -1.000000 0.000000 0.000000
vn -1.000000 0.000000 0.000000
vn 0.000000 0.000000 -1.000000
vn 0.000000 0.000000 -1.000000
vn 0.000000 0.000000 -1.000000
vn 0.000000 0.000000 -1.000000
vn -1.000000 0.000000 0.000000
vn -1.000000 0.000000 0.000000
vn 0.000000 0.000000 1.000000
vn 0.000000 0.000000 1.000000
vn 1.000000 0.000000 0.000000
vn 1.000000 0.000000 0.000000
vn 1.000000 0.000000 0.000000
vn 1.000000 0.000000 0.000000
vn 0.000000 1.000000 0.000000
vn 0.000000 1.000000 0.000000
vn 0.000000 1.000000 0.000000
vn 0.000000 1.000000 0.000000
vn 0.000000 0.000000 1.000000
vn 0.000000 0.000000 1.000000
vn 0.000000 -1.000000 0.000000
vn 0.000000 -1.000000 0.000000
vn 0.000000 0.000000 -1.000000
vn 0.000000 0.000000 -1.000000
s 1
g pCube3
usemtl initialShadingGroup
f 87/143/213 88/144/214 90/146/215 89/145/216
s 2
f 89/145/217 90/146/218 92/148/219 91/147/220
s 3
f 91/147/221 92/148/222 94/150/223 93/149/224
s off
f 93/149/225 94/150/226 88/152/227 87/151/228
f 88/144/229 94/153/230 92/154/231 90/146/232
s 4
f 95/157/233 96/158/234 97/159/235 98/160/236
s 5
f 99/161/237 100/162/238 101/163/239 102/164/240
s 1
f 87/143/213 89/145/216 97/159/241 96/158/242
s 2
f 89/145/217 91/156/220 98/160/243 97/159/244
s 3
f 91/156/221 93/155/224 95/157/245 98/160/246
s off
f 93/155/247 87/143/248 106/168/249 103/165/250
s 1
f 87/143/213 96/158/242 105/167/251 106/168/252
s 4
f 96/158/234 95/157/233 104/166/253 105/167/254
s 3
f 95/157/245 93/155/224 103/165/255 104/166/256
f 104/166/256 103/165/255 99/161/257 102/164/258
s 4
f 105/167/254 104/166/253 102/164/259 101/163/260
s 1
f 106/168/252 105/167/251 101/163/261 100/162/262
s off
f 108/169/263 107/170/264 109/171/265 110/172/266
f 103/165/267 106/168/268 107/170/269 108/169/270
s 1
f 106/168/252 100/162/262 109/171/271 107/170/272
s 5
f 100/162/238 99/161/237 110/172/273 109/171/274
s 3
f 99/161/257 103/165/255 108/169/275 110/172/276
