# This file uses centimeters as units for non-parametric coordinates.

mtllib open cupboard.mtl
g default
v -0.500000 -0.500000 0.500000
v 0.500000 -0.500000 0.500000
v -0.500000 0.500000 0.500000
v 0.500000 0.500000 0.500000
v -0.500000 0.500000 -0.500000
v 0.500000 0.500000 -0.500000
v -0.500000 -0.500000 -0.500000
v 0.500000 -0.500000 -0.500000
v 0.500000 -0.400000 -0.400000
v 0.500000 -0.400000 0.400000
v 0.500000 0.400000 -0.400000
v 0.500000 0.400000 0.400000
v -0.318694 -0.400000 -0.400000
v -0.318694 -0.400000 0.400000
v -0.318694 0.400000 -0.400000
v -0.318694 0.400000 0.400000
vt 0.375000 0.000000
vt 0.625000 0.000000
vt 0.375000 0.250000
vt 0.625000 0.250000
vt 0.375000 0.500000
vt 0.625000 0.500000
vt 0.375000 0.750000
vt 0.625000 0.750000
vt 0.375000 1.000000
vt 0.625000 1.000000
vt 0.875000 0.000000
vt 0.875000 0.250000
vt 0.125000 0.000000
vt 0.125000 0.250000
vt 0.625000 0.000000
vt 0.875000 0.000000
vt 0.875000 0.250000
vt 0.625000 0.250000
vt 0.625000 0.000000
vt 0.875000 0.000000
vt 0.875000 0.250000
vt 0.625000 0.250000
vn 0.000000 0.000000 1.000000
vn 0.000000 0.000000 1.000000
vn 0.000000 0.000000 1.000000
vn 0.000000 0.000000 1.000000
vn 0.000000 1.000000 0.000000
vn 0.000000 1.000000 0.000000
vn 0.000000 1.000000 0.000000
vn 0.000000 1.000000 0.000000
vn 0.000000 0.000000 -1.000000
vn 0.000000 0.000000 -1.000000
vn 0.000000 0.000000 -1.000000
vn 0.000000 0.000000 -1.000000
vn 0.000000 -1.000000 0.000000
vn 0.000000 -1.000000 0.000000
vn 0.000000 -1.000000 0.000000
vn 0.000000 -1.000000 0.000000
vn 1.000000 0.000000 0.000000
vn 1.000000 0.000000 0.000000
vn 1.000000 0.000000 0.000000
vn 1.000000 0.000000 0.000000
vn -1.000000 0.000000 0.000000
vn -1.000000 0.000000 0.000000
vn -1.000000 0.000000 0.000000
vn -1.000000 0.000000 0.000000
vn 1.000000 -0.000000 0.000000
vn 1.000000 -0.000000 0.000000
vn 1.000000 -0.000000 0.000000
vn 1.000000 -0.000000 0.000000
vn 1.000000 0.000000 0.000000
vn 1.000000 0.000000 0.000000
vn 1.000000 0.000000 0.000000
vn 1.000000 0.000000 0.000000
vn 0.000000 1.000000 0.000000
vn 0.000000 1.000000 0.000000
vn 0.000000 1.000000 0.000000
vn 0.000000 1.000000 0.000000
vn 0.000000 0.000000 1.000000
vn 0.000000 0.000000 1.000000
vn 0.000000 0.000000 1.000000
vn 0.000000 0.000000 1.000000
vn 0.000000 -1.000000 0.000000
vn 0.000000 -1.000000 0.000000
vn 0.000000 -1.000000 0.000000
vn 0.000000 -1.000000 0.000000
vn 0.000000 0.000000 -1.000000
vn 0.000000 0.000000 -1.000000
vn 0.000000 0.000000 -1.000000
vn 0.000000 0.000000 -1.000000
s off
g pCube1
usemtl initialShadingGroup
f 1/1/1 2/2/2 4/4/3 3/3/4
f 3/3/5 4/4/6 6/6/7 5/5/8
f 5/5/9 6/6/10 8/8/11 7/7/12
f 7/7/13 8/8/14 2/10/15 1/9/16
f 14/19/17 13/20/18 15/21/19 16/22/20
f 7/13/21 1/1/22 3/3/23 5/14/24
s 1
f 2/2/25 8/11/26 9/16/27 10/15/28
f 8/11/26 6/12/29 11/17/30 9/16/27
f 6/12/29 4/4/31 12/18/32 11/17/30
f 4/4/31 2/2/25 10/15/28 12/18/32
s off
f 10/15/33 9/16/34 13/20/35 14/19/36
f 9/16/37 11/17/38 15/21/39 13/20/40
f 11/17/41 12/18/42 16/22/43 15/21/44
f 12/18/45 10/15/46 14/19/47 16/22/48
g default
v 0.441516 -0.500000 -0.444505
v 0.998599 -0.500000 0.147187
v 0.441516 0.500000 -0.444505
v 0.998599 0.500000 0.147187
v 0.501564 0.500000 -0.501041
v 1.058647 0.500000 0.090651
v 0.501564 -0.500000 -0.501041
v 1.058647 -0.500000 0.090651
vt 0.375000 0.000000
vt 0.625000 0.000000
vt 0.375000 0.250000
vt 0.625000 0.250000
vt 0.375000 0.500000
vt 0.625000 0.500000
vt 0.375000 0.750000
vt 0.625000 0.750000
vt 0.375000 1.000000
vt 0.625000 1.000000
vt 0.875000 0.000000
vt 0.875000 0.250000
vt 0.125000 0.000000
vt 0.125000 0.250000
vn -0.728079 0.000000 0.685493
vn -0.728079 0.000000 0.685493
vn -0.728079 0.000000 0.685493
vn -0.728079 0.000000 0.685493
vn 0.000000 1.000000 0.000000
vn 0.000000 1.000000 0.000000
vn 0.000000 1.000000 0.000000
vn 0.000000 1.000000 0.000000
vn 0.728079 0.000000 -0.685493
vn 0.728079 0.000000 -0.685493
vn 0.728079 0.000000 -0.685493
vn 0.728079 0.000000 -0.685493
vn 0.000000 -1.000000 0.000000
vn 0.000000 -1.000000 0.000000
vn 0.000000 -1.000000 0.000000
vn 0.000000 -1.000000 0.000000
vn 0.685493 0.000000 0.728079
vn 0.685493 0.000000 0.728079
vn 0.685493 0.000000 0.728079
vn 0.685493 0.000000 0.728079
vn -0.685493 0.000000 -0.728079
vn -0.685493 0.000000 -0.728079
vn -0.685493 0.000000 -0.728079
vn -0.685493 0.000000 -0.728079
s off
g pCube2
usemtl initialShadingGroup
f 17/23/49 18/24/50 20/26/51 19/25/52
f 19/25/53 20/26/54 22/28/55 21/27/56
f 21/27/57 22/28/58 24/30/59 23/29/60
f 23/29/61 24/30/62 18/32/63 17/31/64
f 18/24/65 24/33/66 22/34/67 20/26/68
f 23/35/69 17/23/70 19/25/71 21/36/72
g default
v 0.879602 0.040411 -0.000760
v 0.885381 0.056642 0.005156
v 0.894382 0.069523 0.014370
v 0.905724 0.077792 0.025980
v 0.918296 0.080642 0.038850
v 0.930868 0.077792 0.051720
v 0.942210 0.069523 0.063331
v 0.951211 0.056642 0.072545
v 0.956990 0.040411 0.078460
v 0.958981 0.022419 0.080499
v 0.956990 0.004428 0.078460
v 0.951211 -0.011803 0.072545
v 0.942210 -0.024684 0.063331
v 0.930868 -0.032954 0.051720
v 0.918296 -0.035803 0.038850
v 0.905724 -0.032954 0.025980
v 0.894382 -0.024684 0.014370
v 0.885381 -0.011803 0.005156
v 0.879602 0.004428 -0.000760
v 0.877611 0.022419 -0.002798
v 0.980536 0.040411 -0.099358
v 0.986315 0.056642 -0.093443
v 0.995315 0.069523 -0.084229
v 1.006657 0.077792 -0.072618
v 1.019229 0.080642 -0.059748
v 1.031802 0.077792 -0.046878
v 1.043144 0.069523 -0.035268
v 1.052144 0.056642 -0.026054
v 1.057923 0.040411 -0.020138
v 1.059914 0.022419 -0.018100
v 1.057923 0.004428 -0.020138
v 1.052144 -0.011803 -0.026054
v 1.043144 -0.024684 -0.035268
v 1.031802 -0.032954 -0.046878
v 1.019229 -0.035803 -0.059748
v 1.006657 -0.032954 -0.072618
v 0.995315 -0.024684 -0.084229
v 0.986315 -0.011803 -0.093443
v 0.980536 0.004428 -0.099358
v 0.978544 0.022419 -0.101397
v 0.918296 0.022419 0.038850
v 1.019229 0.022419 -0.059748
vt 0.648603 0.107966
vt 0.626409 0.064408
vt 0.591842 0.029841
vt 0.548284 0.007647
vt 0.500000 -0.000000
vt 0.451716 0.007647
vt 0.408159 0.029841
vt 0.373591 0.064409
vt 0.351397 0.107966
vt 0.343750 0.156250
vt 0.351397 0.204534
vt 0.373591 0.248091
vt 0.408159 0.282659
vt 0.451716 0.304853
vt 0.500000 0.312500
vt 0.548284 0.304853
vt 0.591841 0.282659
vt 0.626409 0.248091
vt 0.648603 0.204534
vt 0.656250 0.156250
vt 0.375000 0.312500
vt 0.387500 0.312500
vt 0.400000 0.312500
vt 0.412500 0.312500
vt 0.425000 0.312500
vt 0.437500 0.312500
vt 0.450000 0.312500
vt 0.462500 0.312500
vt 0.475000 0.312500
vt 0.487500 0.312500
vt 0.500000 0.312500
vt 0.512500 0.312500
vt 0.525000 0.312500
vt 0.537500 0.312500
vt 0.550000 0.312500
vt 0.562500 0.312500
vt 0.575000 0.312500
vt 0.587500 0.312500
vt 0.600000 0.312500
vt 0.612500 0.312500
vt 0.625000 0.312500
vt 0.375000 0.687500
vt 0.387500 0.687500
vt 0.400000 0.687500
vt 0.412500 0.687500
vt 0.425000 0.687500
vt 0.437500 0.687500
vt 0.450000 0.687500
vt 0.462500 0.687500
vt 0.475000 0.687500
vt 0.487500 0.687500
vt 0.500000 0.687500
vt 0.512500 0.687500
vt 0.525000 0.687500
vt 0.537500 0.687500
vt 0.550000 0.687500
vt 0.562500 0.687500
vt 0.575000 0.687500
vt 0.587500 0.687500
vt 0.600000 0.687500
vt 0.612500 0.687500
vt 0.625000 0.687500
vt 0.648603 0.795466
vt 0.626409 0.751908
vt 0.591842 0.717341
vt 0.548284 0.695147
vt 0.500000 0.687500
vt 0.451716 0.695147
vt 0.408159 0.717341
vt 0.373591 0.751909
vt 0.351397 0.795466
vt 0.343750 0.843750
vt 0.351397 0.892034
vt 0.373591 0.935591
vt 0.408159 0.970159
vt 0.451716 0.992353
vt 0.500000 1.000000
vt 0.548284 0.992353
vt 0.591841 0.970159
vt 0.626409 0.935591
vt 0.648603 0.892034
vt 0.656250 0.843750
vt 0.500000 0.156250
vt 0.500000 0.843750
vn -0.664583 0.309016 -0.680322
vn -0.565328 0.587785 -0.578717
vn -0.565328 0.587785 -0.578717
vn -0.664583 0.309016 -0.680322
vn -0.410735 0.809017 -0.420462
vn -0.410735 0.809017 -0.420462
vn -0.215936 0.951057 -0.221050
vn -0.215936 0.951057 -0.221050
vn 0.000000 1.000000 0.000000
vn 0.000000 1.000000 0.000000
vn 0.215936 0.951056 0.221050
vn 0.215936 0.951056 0.221050
vn 0.410735 0.809017 0.420462
vn 0.410735 0.809017 0.420462
vn 0.565328 0.587785 0.578717
vn 0.565328 0.587785 0.578717
vn 0.664583 0.309017 0.680322
vn 0.664583 0.309017 0.680322
vn 0.698784 0.000000 0.715333
vn 0.698784 0.000000 0.715333
vn 0.664583 -0.309017 0.680322
vn 0.664583 -0.309017 0.680322
vn 0.565328 -0.587785 0.578716
vn 0.565328 -0.587785 0.578716
vn 0.410735 -0.809017 0.420462
vn 0.410735 -0.809017 0.420462
vn 0.215936 -0.951056 0.221050
vn 0.215936 -0.951056 0.221050
vn -0.000000 -1.000000 -0.000000
vn -0.000000 -1.000000 -0.000000
vn -0.215936 -0.951056 -0.221050
vn -0.215936 -0.951056 -0.221050
vn -0.410735 -0.809017 -0.420462
vn -0.410735 -0.809017 -0.420462
vn -0.565328 -0.587785 -0.578717
vn -0.565328 -0.587785 -0.578717
vn -0.664583 -0.309017 -0.680322
vn -0.664583 -0.309017 -0.680322
vn -0.698784 -0.000001 -0.715333
vn -0.698784 -0.000001 -0.715333
vn -0.715333 -0.000000 0.698784
vn -0.715333 -0.000000 0.698784
vn -0.715333 -0.000000 0.698784
vn -0.715333 -0.000000 0.698784
vn -0.715333 -0.000000 0.698784
vn -0.715333 -0.000000 0.698784
vn -0.715333 -0.000000 0.698784
vn -0.715333 -0.000000 0.698784
vn -0.715333 -0.000000 0.698784
vn -0.715333 -0.000000 0.698784
vn -0.715333 -0.000000 0.698784
vn -0.715333 -0.000000 0.698784
vn -0.715333 -0.000000 0.698784
vn -0.715333 -0.000000 0.698784
vn -0.715333 -0.000000 0.698784
vn -0.715333 -0.000000 0.698784
vn -0.715333 -0.000000 0.698784
vn -0.715333 -0.000000 0.698784
vn -0.715333 -0.000000 0.698784
vn -0.715333 -0.000000 0.698784
vn -0.715333 -0.000000 0.698784
vn 0.715333 0.000000 -0.698784
vn 0.715333 0.000000 -0.698784
vn 0.715333 0.000000 -0.698784
vn 0.715333 0.000000 -0.698784
vn 0.715333 0.000000 -0.698784
vn 0.715333 0.000000 -0.698784
vn 0.715333 0.000000 -0.698784
vn 0.715333 0.000000 -0.698784
vn 0.715333 0.000000 -0.698784
vn 0.715333 0.000000 -0.698784
vn 0.715333 0.000000 -0.698784
vn 0.715333 0.000000 -0.698784
vn 0.715333 0.000000 -0.698784
vn 0.715333 0.000000 -0.698784
vn 0.715333 0.000000 -0.698784
vn 0.715333 0.000000 -0.698784
vn 0.715333 0.000000 -0.698784
vn 0.715333 0.000000 -0.698784
vn 0.715333 0.000000 -0.698784
vn 0.715333 0.000000 -0.698784
vn 0.715333 0.000000 -0.698784
s 1
g pCylinder1
usemtl initialShadingGroup
f 25/57/73 26/58/74 46/79/75 45/78/76
f 26/58/74 27/59/77 47/80/78 46/79/75
f 27/59/77 28/60/79 48/81/80 47/80/78
f 28/60/79 29/61/81 49/82/82 48/81/80
f 29/61/81 30/62/83 50/83/84 49/82/82
f 30/62/83 31/63/85 51/84/86 50/83/84
f 31/63/85 32/64/87 52/85/88 51/84/86
f 32/64/87 33/65/89 53/86/90 52/85/88
f 33/65/89 34/66/91 54/87/92 53/86/90
f 34/66/91 35/67/93 55/88/94 54/87/92
f 35/67/93 36/68/95 56/89/96 55/88/94
f 36/68/95 37/69/97 57/90/98 56/89/96
f 37/69/97 38/70/99 58/91/100 57/90/98
f 38/70/99 39/71/101 59/92/102 58/91/100
f 39/71/101 40/72/103 60/93/104 59/92/102
f 40/72/103 41/73/105 61/94/106 60/93/104
f 41/73/105 42/74/107 62/95/108 61/94/106
f 42/74/107 43/75/109 63/96/110 62/95/108
f 43/75/109 44/76/111 64/97/112 63/96/110
f 44/76/111 25/77/73 45/98/76 64/97/112
s 2
f 26/38/113 25/37/114 65/119/115
f 27/39/116 26/38/113 65/119/115
f 28/40/117 27/39/116 65/119/115
f 29/41/118 28/40/117 65/119/115
f 30/42/119 29/41/118 65/119/115
f 31/43/120 30/42/119 65/119/115
f 32/44/121 31/43/120 65/119/115
f 33/45/122 32/44/121 65/119/115
f 34/46/123 33/45/122 65/119/115
f 35/47/124 34/46/123 65/119/115
f 36/48/125 35/47/124 65/119/115
f 37/49/126 36/48/125 65/119/115
f 38/50/127 37/49/126 65/119/115
f 39/51/128 38/50/127 65/119/115
f 40/52/129 39/51/128 65/119/115
f 41/53/130 40/52/129 65/119/115
f 42/54/131 41/53/130 65/119/115
f 43/55/132 42/54/131 65/119/115
f 44/56/133 43/55/132 65/119/115
f 25/37/114 44/56/133 65/119/115
s 3
f 45/117/134 46/116/135 66/120/136
f 46/116/135 47/115/137 66/120/136
f 47/115/137 48/114/138 66/120/136
f 48/114/138 49/113/139 66/120/136
f 49/113/139 50/112/140 66/120/136
f 50/112/140 51/111/141 66/120/136
f 51/111/141 52/110/142 66/120/136
f 52/110/142 53/109/143 66/120/136
f 53/109/143 54/108/144 66/120/136
f 54/108/144 55/107/145 66/120/136
f 55/107/145 56/106/146 66/120/136
f 56/106/146 57/105/147 66/120/136
f 57/105/147 58/104/148 66/120/136
f 58/104/148 59/103/149 66/120/136
f 59/103/149 60/102/150 66/120/136
f 60/102/150 61/101/151 66/120/136
f 61/101/151 62/100/152 66/120/136
f 62/100/152 63/99/153 66/120/136
f 63/99/153 64/118/154 66/120/136
f 64/118/154 45/117/134 66/120/136
