# This file uses centimeters as units for non-parametric coordinates.

mtllib sink.mtl
g default
v -0.500000 -0.163373 0.500000
v 0.500000 -0.163373 0.500000
v -0.500000 0.836627 0.500000
v 0.500000 0.836627 0.500000
v -0.500000 0.836627 -0.500000
v 0.500000 0.836627 -0.500000
v -0.500000 -0.163373 -0.500000
v 0.500000 -0.163373 -0.500000
v -0.500000 0.736627 0.500000
v -0.500000 0.736627 -0.500000
v 0.500000 0.736627 -0.500000
v 0.500000 0.736627 0.500000
v 0.600000 0.736627 -0.500000
v 0.600000 0.736627 0.500000
v 0.600000 0.836627 -0.500000
v 0.600000 0.836627 0.500000
v -0.400000 -0.163373 0.500000
v -0.400000 0.736627 0.500000
v -0.400000 0.836627 0.500000
v -0.400000 0.836627 -0.500000
v -0.400000 0.736627 -0.500000
v -0.400000 -0.163373 -0.500000
v -0.500000 0.836627 0.400000
v -0.500000 0.736627 0.400000
v -0.500000 -0.163373 0.400000
v -0.400000 -0.163373 0.400000
v 0.500000 -0.163373 0.400000
v 0.500000 0.736627 0.400000
v 0.600000 0.736627 0.400000
v 0.600000 0.836627 0.400000
v 0.500000 0.836627 0.400000
v -0.400000 0.836627 0.400000
v -0.500000 -0.163373 -0.410000
v -0.500000 0.736627 -0.410000
v -0.500000 0.836627 -0.410000
v -0.400000 0.836627 -0.410000
v 0.500000 0.836627 -0.410000
v 0.600000 0.836627 -0.410000
v 0.600000 0.736627 -0.410000
v 0.500000 0.736627 -0.410000
v 0.500000 -0.163373 -0.410000
v -0.400000 -0.163373 -0.410000
v 0.410000 0.736627 0.500000
v 0.410000 -0.163373 0.500000
v 0.410000 -0.163373 0.400000
v 0.410000 -0.163373 -0.410000
v 0.410000 -0.163373 -0.500000
v 0.410000 0.736627 -0.500000
v 0.410000 0.836627 -0.500000
v 0.410000 0.836627 -0.410000
v 0.410000 0.836627 0.400000
v 0.410000 0.836627 0.500000
v 0.410000 0.498702 -0.410000
v 0.410000 0.498702 0.400000
v -0.400000 0.498702 -0.410000
v -0.400000 0.498702 0.400000
v -0.500000 0.836627 -0.086000
v -0.500000 0.736627 -0.086000
v -0.500000 -0.163373 -0.086000
v -0.400000 -0.163373 -0.086000
v 0.410000 -0.163373 -0.086000
v 0.500000 -0.163373 -0.086000
v 0.500000 0.736627 -0.086000
v 0.600000 0.736627 -0.086000
v 0.600000 0.836627 -0.086000
v 0.500000 0.836627 -0.086000
v 0.410000 0.836627 -0.086000
v 0.410000 0.498702 -0.086000
v -0.400000 0.498702 -0.086000
v -0.400000 0.836627 -0.086000
v -0.500000 0.836627 0.011200
v -0.500000 0.736627 0.011200
v -0.500000 -0.163373 0.011200
v -0.400000 -0.163373 0.011200
v 0.410000 -0.163373 0.011200
v 0.500000 -0.163373 0.011200
v 0.500000 0.736627 0.011200
v 0.600000 0.736627 0.011200
v 0.600000 0.836627 0.011200
v 0.500000 0.836627 0.011200
v 0.410000 0.836627 0.011200
v 0.410000 0.498702 0.011200
v -0.400000 0.498702 0.011200
v -0.400000 0.836627 0.011200
v -0.400000 1.003917 0.011200
v -0.500000 1.003917 0.011200
v -0.400000 1.003917 -0.086000
v -0.500000 1.003917 -0.086000
v -0.400000 0.920272 0.011200
v -0.500000 0.920272 0.011200
v -0.500000 0.920272 -0.086000
v -0.400000 0.920272 -0.086000
v -0.009846 0.920272 -0.086000
v -0.009846 0.920272 0.011200
v -0.009846 1.003917 -0.086000
v -0.009846 1.003917 0.011200
vt 0.375000 0.000000
vt 0.625000 0.000000
vt 0.375000 0.250000
vt 0.625000 0.250000
vt 0.375000 0.500000
vt 0.625000 0.500000
vt 0.375000 0.750000
vt 0.625000 0.750000
vt 0.375000 1.000000
vt 0.625000 1.000000
vt 0.875000 0.000000
vt 0.875000 0.250000
vt 0.125000 0.000000
vt 0.125000 0.250000
vt 0.375000 0.225000
vt 0.125000 0.225000
vt 0.375000 0.525000
vt 0.625000 0.525000
vt 0.875000 0.225000
vt 0.625000 0.225000
vt 0.625000 0.225000
vt 0.875000 0.225000
vt 0.875000 0.250000
vt 0.625000 0.250000
vt 0.400000 0.000000
vt 0.400000 1.000000
vt 0.400000 0.225000
vt 0.400000 0.250000
vt 0.400000 0.500000
vt 0.400000 0.525000
vt 0.400000 0.750000
vt 0.350000 0.250000
vt 0.375000 0.275000
vt 0.350000 0.225000
vt 0.350000 0.000000
vt 0.375000 0.975000
vt 0.400000 0.975000
vt 0.625000 0.975000
vt 0.650000 0.000000
vt 0.650000 0.225000
vt 0.650000 0.225000
vt 0.650000 0.250000
vt 0.625000 0.275000
vt 0.650000 0.250000
vt 0.400000 0.275000
vt 0.147500 0.000000
vt 0.375000 0.772500
vt 0.147500 0.225000
vt 0.147500 0.250000
vt 0.375000 0.477500
vt 0.400000 0.477500
vt 0.625000 0.477500
vt 0.852500 0.250000
vt 0.852500 0.250000
vt 0.852500 0.225000
vt 0.852500 0.225000
vt 0.625000 0.772500
vt 0.852500 0.000000
vt 0.400000 0.772500
vt 0.602500 0.225000
vt 0.602500 0.000000
vt 0.602500 1.000000
vt 0.602500 0.975000
vt 0.602500 0.772500
vt 0.602500 0.750000
vt 0.602500 0.525000
vt 0.602500 0.500000
vt 0.602500 0.477500
vt 0.602500 0.275000
vt 0.602500 0.250000
vt 0.602500 0.275000
vt 0.602500 0.477500
vt 0.400000 0.477500
vt 0.400000 0.275000
vt 0.228500 0.250000
vt 0.375000 0.396500
vt 0.228500 0.225000
vt 0.228500 0.000000
vt 0.375000 0.853500
vt 0.400000 0.853500
vt 0.602500 0.853500
vt 0.625000 0.853500
vt 0.771500 0.000000
vt 0.771500 0.225000
vt 0.771500 0.225000
vt 0.771500 0.250000
vt 0.625000 0.396500
vt 0.771500 0.250000
vt 0.602500 0.396500
vt 0.602500 0.396500
vt 0.400000 0.396500
vt 0.400000 0.396500
vt 0.252800 0.250000
vt 0.375000 0.372200
vt 0.252800 0.225000
vt 0.252800 0.000000
vt 0.375000 0.877800
vt 0.400000 0.877800
vt 0.602500 0.877800
vt 0.625000 0.877800
vt 0.747200 0.000000
vt 0.747200 0.225000
vt 0.747200 0.225000
vt 0.747200 0.250000
vt 0.625000 0.372200
vt 0.747200 0.250000
vt 0.602500 0.372200
vt 0.602500 0.372200
vt 0.400000 0.372200
vt 0.400000 0.372200
vt 0.375000 0.372200
vt 0.400000 0.372200
vt 0.400000 0.396500
vt 0.375000 0.396500
vt 0.400000 0.372200
vt 0.375000 0.372200
vt 0.375000 0.396500
vt 0.400000 0.396500
vt 0.400000 0.372200
vt 0.400000 0.396500
vt 0.400000 0.396500
vt 0.400000 0.372200
vn 0.000000 0.000000 1.000000
vn 0.000000 0.000000 1.000000
vn 0.000000 0.000000 1.000000
vn 0.000000 0.000000 1.000000
vn 0.000000 1.000000 -0.000000
vn 0.000000 1.000000 -0.000000
vn 0.000000 1.000000 -0.000000
vn 0.000000 1.000000 0.000000
vn 0.000000 0.000000 -1.000000
vn 0.000000 0.000000 -1.000000
vn 0.000000 0.000000 -1.000000
vn 0.000000 0.000000 -1.000000
vn 0.000000 -1.000000 0.000000
vn 0.000000 -1.000000 0.000000
vn 0.000000 -1.000000 0.000000
vn 0.000000 -1.000000 0.000000
vn 1.000000 0.000000 0.000000
vn 1.000000 0.000000 0.000000
vn 1.000000 0.000000 0.000000
vn 1.000000 0.000000 0.000000
vn -1.000000 0.000000 0.000000
vn -1.000000 0.000000 0.000000
vn -1.000000 0.000000 0.000000
vn -1.000000 0.000000 0.000000
vn -1.000000 0.000000 0.000000
vn -1.000000 0.000000 0.000000
vn 0.000000 0.000000 -1.000000
vn 0.000000 0.000000 -1.000000
vn 1.000000 0.000000 0.000000
vn 1.000000 0.000000 0.000000
vn 1.000000 0.000000 0.000000
vn 1.000000 0.000000 0.000000
vn 0.000000 0.000000 1.000000
vn 0.000000 0.000000 1.000000
vn 0.000000 -1.000000 0.000000
vn 0.000000 -1.000000 0.000000
vn 0.000000 -1.000000 0.000000
vn 0.000000 -1.000000 0.000000
vn 0.000000 0.000000 -1.000000
vn 0.000000 0.000000 -1.000000
vn 0.000000 0.000000 -1.000000
vn 0.000000 0.000000 -1.000000
vn 0.000000 1.000000 0.000000
vn -0.000000 1.000000 0.000000
vn -0.000000 1.000000 0.000000
vn 0.000000 1.000000 0.000000
vn 0.000000 0.000000 1.000000
vn 0.000000 0.000000 1.000000
vn 0.000000 0.000000 1.000000
vn 0.000000 0.000000 1.000000
vn 0.000000 0.000000 1.000000
vn 0.000000 0.000000 1.000000
vn 0.000000 0.000000 1.000000
vn 0.000000 0.000000 1.000000
vn -0.000000 1.000000 -0.000000
vn -0.000000 1.000000 -0.000000
vn 0.000000 0.000000 -1.000000
vn 0.000000 0.000000 -1.000000
vn 0.000000 0.000000 -1.000000
vn 0.000000 0.000000 -1.000000
vn 0.000000 -1.000000 0.000000
vn 0.000000 -1.000000 0.000000
vn 0.000000 -1.000000 0.000000
vn 0.000000 -1.000000 0.000000
vn -1.000000 0.000000 0.000000
vn -1.000000 0.000000 0.000000
vn -1.000000 0.000000 0.000000
vn -1.000000 0.000000 0.000000
vn -1.000000 0.000000 0.000000
vn -1.000000 0.000000 0.000000
vn 0.000000 -1.000000 0.000000
vn 0.000000 -1.000000 0.000000
vn 0.000000 -1.000000 0.000000
vn 0.000000 -1.000000 0.000000
vn 0.000000 -1.000000 0.000000
vn 0.000000 -1.000000 0.000000
vn 0.000000 -1.000000 0.000000
vn 0.000000 -1.000000 0.000000
vn 1.000000 0.000000 0.000000
vn 1.000000 0.000000 0.000000
vn 1.000000 0.000000 0.000000
vn 1.000000 0.000000 0.000000
vn 0.000000 -1.000000 0.000000
vn 0.000000 -1.000000 0.000000
vn 0.000000 -1.000000 0.000000
vn 0.000000 -1.000000 0.000000
vn 1.000000 0.000001 0.000000
vn 1.000000 0.000001 0.000000
vn 1.000000 0.000000 0.000000
vn 1.000000 0.000000 0.000000
vn 0.000000 1.000000 0.000000
vn 0.000000 1.000000 0.000000
vn 0.000000 1.000000 0.000000
vn 0.000000 1.000000 0.000000
vn 0.000000 1.000000 0.000000
vn 0.000000 1.000000 0.000000
vn 0.000000 1.000000 0.000000
vn 0.000000 1.000000 0.000000
vn 0.000000 1.000000 0.000000
vn 0.000000 1.000000 0.000000
vn -1.000000 0.000000 0.000000
vn -1.000000 0.000000 0.000000
vn -1.000000 0.000000 0.000000
vn 0.000000 1.000000 0.000000
vn 0.000000 1.000000 0.000000
vn -0.000000 1.000000 0.000000
vn -0.000000 1.000000 0.000000
vn 0.000000 1.000000 0.000000
vn 1.000000 0.000000 0.000000
vn 1.000000 0.000000 0.000000
vn 0.000000 -1.000000 0.000000
vn 0.000000 -1.000000 0.000000
vn 1.000000 0.000000 0.000000
vn 1.000000 0.000000 0.000000
vn 0.000000 -1.000000 0.000000
vn 0.000000 -1.000000 0.000000
vn 0.000000 -1.000000 0.000000
vn 0.000000 -1.000000 0.000000
vn 0.000000 1.000000 0.000000
vn 0.000000 1.000000 0.000000
vn 0.000000 1.000000 0.000000
vn 0.000000 1.000000 0.000000
vn -1.000000 0.000000 -0.000000
vn -1.000000 0.000000 -0.000000
vn -1.000000 0.000000 -0.000000
vn -1.000000 0.000000 -0.000000
vn 0.000000 0.000000 1.000000
vn 0.000000 0.000000 1.000000
vn 0.000000 0.000000 1.000000
vn 0.000000 0.000000 1.000000
vn 1.000000 0.000000 0.000000
vn 1.000000 0.000000 0.000000
vn 1.000000 0.000000 0.000000
vn 1.000000 0.000000 0.000000
vn -0.000000 0.000000 -1.000000
vn -0.000000 0.000000 -1.000000
vn -0.000000 0.000000 -1.000000
vn -0.000000 0.000000 -1.000000
vn -1.000000 0.000000 0.000000
vn -1.000000 0.000000 0.000000
vn -1.000000 0.000000 0.000000
vn 0.000000 -1.000000 0.000000
vn 0.000000 -1.000000 0.000000
vn 0.000000 -1.000000 0.000000
vn 0.000000 -1.000000 0.000000
vn 1.000000 0.000000 0.000000
vn 1.000000 0.000000 0.000000
vn 0.000000 -1.000000 0.000000
vn 0.000000 -1.000000 0.000000
vn 1.000000 0.000001 0.000000
vn 1.000000 0.000001 0.000000
vn 0.000000 1.000000 0.000000
vn 0.000000 1.000000 0.000000
vn 0.000000 1.000000 0.000000
vn -1.000000 0.000000 0.000000
vn -1.000000 0.000000 0.000000
vn -1.000000 0.000000 0.000000
vn -1.000000 0.000000 0.000000
vn 0.000000 1.000000 0.000000
vn 0.000000 1.000000 0.000000
vn 0.000000 1.000000 0.000000
vn 0.000000 1.000000 0.000000
vn 1.000000 0.000000 0.000000
vn 1.000000 0.000000 0.000000
vn 1.000000 0.000000 0.000000
vn 1.000000 0.000000 0.000000
vn 0.000000 1.000000 0.000000
vn 0.000000 1.000000 0.000000
vn 0.000000 1.000000 0.000000
vn 0.000000 1.000000 0.000000
vn 0.000000 1.000000 0.000000
vn 0.000000 1.000000 0.000000
vn 0.000000 0.000000 1.000000
vn 0.000000 0.000000 1.000000
vn 0.000000 0.000000 1.000000
vn 0.000000 0.000000 1.000000
vn 1.000000 0.000001 0.000000
vn 1.000000 0.000001 0.000000
vn 0.000000 0.000000 -1.000000
vn 0.000000 0.000000 -1.000000
vn 0.000000 0.000000 -1.000000
vn 0.000000 0.000000 -1.000000
vn -1.000000 0.000000 0.000000
vn -1.000000 0.000000 0.000000
vn 0.000000 0.000000 1.000000
vn 0.000000 0.000000 1.000000
vn -1.000000 0.000000 0.000000
vn -1.000000 0.000000 0.000000
vn 0.000000 0.000000 -1.000000
vn 0.000000 0.000000 -1.000000
vn 1.000000 0.000000 0.000000
vn 1.000000 0.000000 0.000000
vn 1.000000 0.000000 0.000000
vn 1.000000 0.000000 0.000000
vn 0.000000 -1.000000 0.000000
vn 0.000000 -1.000000 0.000000
vn 0.000000 -1.000000 0.000000
vn 0.000000 -1.000000 0.000000
vn 0.000000 0.000000 -1.000000
vn 0.000000 0.000000 -1.000000
vn 0.000000 1.000000 0.000000
vn 0.000000 1.000000 0.000000
vn 0.000000 0.000000 1.000000
vn 0.000000 0.000000 1.000000
s 1
g pCube1
usemtl initialShadingGroup
f 1/1/1 17/25/2 18/27/3 9/15/4
s 2
f 3/3/5 19/28/6 32/45/7 23/33/8
s 3
f 10/17/9 21/30/10 22/31/11 7/7/12
s 4
f 25/36/13 26/37/14 17/26/15 1/9/16
s 5
f 2/2/17 27/39/18 28/40/19 12/20/20
s 6
f 24/34/21 25/35/22 1/1/23 9/15/24
f 23/32/25 24/34/21 9/15/24 3/3/26
s 3
f 5/5/27 20/29/28 21/30/10 10/17/9
s 7
f 14/21/29 29/41/30 30/42/31 16/24/32
s 1
f 9/15/4 18/27/3 19/28/33 3/3/34
s 8
f 12/20/35 28/40/36 29/41/37 14/21/38
s 3
f 11/19/39 6/12/40 15/23/41 13/22/42
s 2
f 30/42/43 31/44/44 4/4/45 16/24/46
s 1
f 4/4/47 12/20/48 14/21/49 16/24/50
f 43/60/51 44/61/52 2/2/53 12/20/48
f 52/70/54 43/60/51 12/20/48 4/4/47
s 2
f 31/43/44 51/69/55 52/70/56 4/4/45
s 3
f 48/66/57 49/67/58 6/6/40 11/18/39
f 47/65/59 48/66/57 11/18/39 8/8/60
s 4
f 44/62/61 45/63/62 27/38/63 2/10/64
s 6
f 10/16/65 34/48/66 35/49/67 5/14/68
f 7/13/69 33/46/70 34/48/66 10/16/65
s 4
f 7/7/71 22/31/72 42/59/73 33/47/74
f 41/57/75 46/64/76 47/65/77 8/8/78
s 5
f 40/56/79 41/58/80 8/11/81 11/19/82
s 8
f 39/55/83 40/56/84 11/19/85 13/22/86
s 7
f 38/54/87 39/55/88 13/22/89 15/23/90
s 2
f 6/12/91 37/53/92 38/54/93 15/23/94
f 49/67/95 50/68/96 37/52/92 6/6/91
f 35/50/97 36/51/98 20/29/99 5/5/100
s 6
f 72/95/101 73/96/102 25/35/22 24/34/21
f 71/93/103 72/95/101 24/34/21 23/32/25
s 2
f 23/33/8 32/45/7 84/110/104 71/94/105
f 80/105/106 81/107/107 51/69/55 31/43/44
f 79/104/108 80/106/106 31/44/44 30/42/43
s 7
f 30/42/31 29/41/30 78/103/109 79/104/110
s 8
f 29/41/37 28/40/36 77/102/111 78/103/112
s 5
f 28/40/19 27/39/18 76/101/113 77/102/114
s 4
f 27/38/63 45/63/62 75/99/115 76/100/116
f 73/97/117 74/98/118 26/37/14 25/36/13
s 1
f 18/27/3 17/25/2 44/61/52 43/60/51
s 4
f 17/26/15 26/37/14 45/63/62 44/62/61
f 74/98/118 75/99/115 45/63/62 26/37/14
f 47/65/77 46/64/76 42/59/73 22/31/72
s 3
f 22/31/11 21/30/10 48/66/57 47/65/59
f 21/30/10 20/29/28 49/67/58 48/66/57
s 2
f 20/29/99 36/51/98 50/68/96 49/67/95
s 20
f 54/71/119 82/108/120 83/109/121 56/74/122
s 2
f 52/70/56 51/69/55 32/45/7 19/28/6
s 1
f 19/28/33 18/27/3 43/60/51 52/70/54
s 21
f 51/69/123 81/107/124 82/108/125 54/71/126
s off
f 50/68/127 36/51/128 55/73/129 53/72/130
s 22
f 83/109/131 84/110/132 32/45/133 56/74/134
s off
f 32/45/135 51/69/136 54/71/137 56/74/138
s 6
f 35/49/67 34/48/66 58/77/139 57/75/140
f 34/48/66 33/46/70 59/78/141 58/77/139
s 4
f 33/47/74 42/59/73 60/80/142 59/79/143
f 46/64/76 61/81/144 60/80/142 42/59/73
f 62/82/145 61/81/144 46/64/76 41/57/75
s 5
f 63/84/146 62/83/147 41/58/80 40/56/79
s 8
f 64/85/148 63/84/149 40/56/84 39/55/83
s 7
f 65/86/150 64/85/151 39/55/88 38/54/87
s 2
f 38/54/93 37/53/92 66/88/152 65/86/153
f 37/52/92 50/68/96 67/89/154 66/87/152
s 21
f 68/90/155 67/89/156 50/68/157 53/72/158
s 20
f 69/91/159 68/90/160 53/72/161 55/73/162
s 22
f 36/51/163 70/92/164 69/91/165 55/73/166
s 2
f 57/76/167 70/92/168 36/51/98 35/50/97
s 6
f 57/75/140 58/77/139 72/95/101 71/93/103
f 58/77/139 59/78/141 73/96/102 72/95/101
s 4
f 59/79/143 60/80/142 74/98/118 73/97/117
f 60/80/142 61/81/144 75/99/115 74/98/118
f 76/100/116 75/99/115 61/81/144 62/82/145
s 5
f 77/102/114 76/101/113 62/83/147 63/84/146
s 8
f 78/103/112 77/102/111 63/84/149 64/85/148
s 7
f 79/104/110 78/103/109 64/85/151 65/86/150
s 2
f 65/86/153 66/88/152 80/106/106 79/104/108
f 66/87/152 67/89/154 81/107/107 80/105/106
s 21
f 82/108/125 81/107/124 67/89/156 68/90/155
s 20
f 83/109/121 82/108/120 68/90/160 69/91/159
s 22
f 69/91/165 70/92/164 84/110/132 83/109/131
s 23
f 86/111/169 85/112/170 87/113/171 88/114/172
s 24
f 71/94/173 84/110/174 89/115/175 90/116/176
s 22
f 84/110/132 70/92/164 92/118/177 89/115/178
s 25
f 70/92/179 57/76/180 91/117/181 92/118/182
s 6
f 57/76/140 71/94/103 90/116/183 91/117/184
s 24
f 90/116/176 89/115/175 85/112/185 86/111/186
s 6
f 91/117/184 90/116/183 86/111/187 88/114/188
s 25
f 92/118/182 91/117/181 88/114/189 87/113/190
s off
f 94/119/191 93/120/192 95/121/193 96/122/194
f 89/115/195 92/118/196 93/120/197 94/119/198
s 25
f 92/118/182 87/113/190 95/121/199 93/120/200
s 23
f 87/113/171 85/112/170 96/122/201 95/121/202
s 24
f 85/112/185 89/115/175 94/119/203 96/122/204
